<svg xmlns="http://www.w3.org/2000/svg" viewBox="0 0 90 90"><defs><style>.cls-1{fill:#9cc925;}.cls-1,.cls-2,.cls-3,.cls-4{fill-rule:evenodd;}.cls-2{fill:#a4d427;}.cls-3{fill:#7ba60d;}.cls-4{fill:#fff;}.cls-5{fill:#404041;}.cls-6{fill:#71990c;}</style></defs><title>frog</title><g id="frog"><path class="cls-1" d="M45,77.5c20.32,0,36.9-16.06,36.9-31.62S65.32,17.62,45,17.62,8.11,30.31,8.11,45.88,24.68,77.5,45,77.5Z"/><path class="cls-2" d="M45,17.62c20.19,0,36.56,13.08,36.56,29.22S65.19,68,45,68,8.44,63,8.44,46.84,24.81,17.62,45,17.62Z"/><path class="cls-3" d="M45,17.62c19.87,0,36,12.65,36,28.26s-16.11,20.5-36,20.5S9,61.48,9,45.88,25.13,17.62,45,17.62Z"/><path class="cls-1" d="M45,16.52a44.26,44.26,0,0,1,10.34,1.22,4.41,4.41,0,0,0,4.17-1.11A15,15,0,0,1,69.85,12.5a15.35,15.35,0,0,1,12.2,24.39,4.51,4.51,0,0,0-.77,3.81,22.53,22.53,0,0,1,.61,5.18c0,15.6-16.52,16.07-36.89,16.07S8.11,61.48,8.11,45.88a22.51,22.51,0,0,1,.61-5.18,4.51,4.51,0,0,0-.77-3.81A15.35,15.35,0,0,1,20.15,12.5a15,15,0,0,1,10.34,4.12,4.41,4.41,0,0,0,4.17,1.12A44.27,44.27,0,0,1,45,16.52Z"/><path class="cls-4" d="M69.85,38.19A10.38,10.38,0,1,0,59.58,27.81,10.34,10.34,0,0,0,69.85,38.19Z"/><ellipse class="cls-5" cx="69.85" cy="27.81" rx="4.52" ry="4.57"/><path class="cls-4" d="M20.15,38.19A10.38,10.38,0,1,0,9.88,27.81,10.34,10.34,0,0,0,20.15,38.19Z"/><ellipse class="cls-5" cx="20.15" cy="27.81" rx="4.52" ry="4.57"/><ellipse class="cls-6" cx="38.42" cy="45.75" rx="3.14" ry="3.17"/><ellipse class="cls-6" cx="51.58" cy="45.75" rx="3.14" ry="3.17"/></g></svg>